#N canvas 0 50 1411 564 10;
#X obj 63 40 inlet;
#X obj 23 206 line;
#X msg 23 167 1 2000;
#X obj 128 40 inlet;
#X msg 114 167 0 2000;
#X obj 23 232 s fade;
#X connect 0 0 2 0;
#X connect 1 0 5 0;
#X connect 2 0 1 0;
#X connect 3 0 4 0;
#X connect 4 0 1 0;
