#N canvas 336 96 1530 923 10;
#X text 205 57 spatialized playlists;
#X obj 926 151 audio_tables_loader;
#X obj 926 124 bng 15 250 50 0 empty empty empty 17 7 0 10 -262144
-1 -1;
#X obj 926 180 bng 15 250 50 0 empty empty empty 17 7 0 10 -262144
-1 -1;
#X text 952 124 click to reload audio files;
#X text 946 180 audio loaded indicator;
#X obj 209 78 bng 40 250 50 0 empty empty empty 17 7 0 10 -4034 -1
-1;
#X obj 276 414 elooper~;
#X obj 276 495 output~ 1;
#X obj 371 495 output~ 2;
#X obj 460 495 output~ 3;
#X obj 549 495 output~ 4;
#X obj 276 460 nozip;
#X obj 303 436 r fade1;
#X obj 371 459 nozip;
#X obj 460 457 nozip;
#X obj 549 456 nozip;
#X obj 398 435 r fade2;
#X obj 487 433 r fade3;
#X obj 576 432 r fade4;
#X obj 46 467 bng 15 250 50 0 empty empty empty 17 7 0 10 -262144 -1
-1;
#X obj 46 445 r fade_all;
#X obj 179 195 s fade_all;
#X obj 258 195 s fade_preset;
#X obj 121 445 r fade_preset;
#X obj 442 80 bng 40 250 50 0 empty empty empty 17 7 0 10 -4034 -1
-1;
#X obj 412 190 s fade_all;
#X obj 499 190 s fade_preset;
#X text 434 57 spatial transition;
#X obj 442 162 t b 2;
#N canvas 260 23 851 430 presets 0;
#X obj 170 63 select 1 2;
#X obj 103 237 s player1;
#X obj 166 237 s player2;
#X obj 293 237 s player4;
#X obj 230 237 s player3;
#X msg 67 109 playlist01;
#X msg 96 155 playtrans01;
#X msg 168 101 playlist02;
#X msg 182 139 playtrans02;
#X msg 260 107 playlist03;
#X msg 360 112 playlist04;
#X msg 372 143 playtrans04;
#X msg 277 139 playtrans03;
#X obj 170 35 inlet;
#X connect 0 0 5 0;
#X connect 0 0 7 0;
#X connect 0 0 9 0;
#X connect 0 0 10 0;
#X connect 0 1 6 0;
#X connect 0 1 8 0;
#X connect 0 1 12 0;
#X connect 0 1 11 0;
#X connect 5 0 1 0;
#X connect 6 0 1 0;
#X connect 7 0 2 0;
#X connect 8 0 2 0;
#X connect 9 0 4 0;
#X connect 10 0 3 0;
#X connect 11 0 3 0;
#X connect 12 0 4 0;
#X connect 13 0 0 0;
#X restore 50 580 pd presets;
#X obj 276 391 t b a;
#X obj 371 389 t b a;
#X obj 371 364 r player2;
#X obj 460 387 t b a;
#X obj 549 385 t b a;
#X obj 50 541 r preset;
#X obj 64 562 bng 15 250 50 0 empty empty empty 17 7 0 10 -262144 -1
-1;
#X obj 460 362 r player3;
#X obj 549 360 r player4;
#X obj 276 366 r player1;
#X floatatom 85 561 5 0 0 0 - - -, f 5;
#X obj 209 167 t b f;
#X msg 209 143 1;
#X msg 442 141 2;
#X obj 371 413 elooper~;
#X obj 460 411 elooper~;
#X obj 549 410 elooper~;
#X obj 635 438 loadbang;
#X msg 635 465 0;
#X obj 926 95 loadbang;
#X obj 52 661 r preset;
#X obj 60 687 bng 15 250 50 0 empty empty empty 17 7 0 10 -262144 -1
-1;
#X floatatom 81 687 5 0 0 0 - - -, f 5;
#N canvas 38 493 888 509 osc_sender 0;
#X obj 103 68 inlet;
#X obj 103 95 oscformat preset;
#X obj 103 123 oscparse;
#X obj 247 140 list prepend send;
#X obj 247 168 list trim;
#X msg 264 194 connect localhost 5000;
#X msg 265 221 disconnect;
#X obj 247 252 netsend -u -b;
#X obj 103 168 print sending_osc;
#X obj 103 145 list trim;
#X text 415 193 <-- enter holoplot IP here;
#X connect 0 0 1 0;
#X connect 1 0 2 0;
#X connect 1 0 3 0;
#X connect 2 0 9 0;
#X connect 3 0 4 0;
#X connect 4 0 7 0;
#X connect 5 0 7 0;
#X connect 6 0 7 0;
#X connect 9 0 8 0;
#X restore 52 707 pd osc_sender;
#X text 48 727 dbl click to enter holoplot IP;
#X obj 46 490 fade_all 2000;
#X connect 1 0 3 0;
#X connect 2 0 1 0;
#X connect 6 0 43 0;
#X connect 7 0 12 0;
#X connect 12 0 8 0;
#X connect 13 0 12 1;
#X connect 14 0 9 0;
#X connect 15 0 10 0;
#X connect 16 0 11 0;
#X connect 17 0 14 1;
#X connect 18 0 15 1;
#X connect 19 0 16 1;
#X connect 20 0 56 0;
#X connect 21 0 20 0;
#X connect 24 0 56 1;
#X connect 25 0 44 0;
#X connect 29 0 26 0;
#X connect 29 1 27 0;
#X connect 31 0 7 0;
#X connect 31 1 7 2;
#X connect 32 0 45 0;
#X connect 32 1 45 2;
#X connect 33 0 32 0;
#X connect 34 0 46 0;
#X connect 34 1 46 2;
#X connect 35 0 47 0;
#X connect 35 1 47 2;
#X connect 36 0 30 0;
#X connect 36 0 37 0;
#X connect 36 0 41 0;
#X connect 38 0 34 0;
#X connect 39 0 35 0;
#X connect 40 0 31 0;
#X connect 42 0 22 0;
#X connect 42 1 23 0;
#X connect 43 0 42 0;
#X connect 44 0 29 0;
#X connect 45 0 14 0;
#X connect 46 0 15 0;
#X connect 47 0 16 0;
#X connect 48 0 49 0;
#X connect 49 0 11 2;
#X connect 49 0 10 2;
#X connect 49 0 9 2;
#X connect 49 0 8 2;
#X connect 50 0 2 0;
#X connect 51 0 52 0;
#X connect 51 0 53 0;
#X connect 51 0 54 0;
