#N canvas 218 113 1677 984 10;
#X text 47 42 spatialized playlists;
#X obj 16 289 audio_tables_loader;
#X obj 16 262 bng 15 250 50 0 empty empty empty 17 7 0 10 -262144 -1
-1;
#X obj 16 318 bng 15 250 50 0 empty empty empty 17 7 0 10 -262144 -1
-1;
#X text 42 264 click to reload audio files;
#X text 36 318 audio loaded indicator;
#X obj 51 63 bng 40 250 50 0 empty empty empty 17 7 0 10 -4034 -1 -1
;
#X obj 276 414 elooper~;
#X obj 276 527 output~ 1;
#X obj 371 527 output~ 2;
#X obj 460 527 output~ 3;
#X obj 549 527 output~ 4;
#X obj 276 460 nozip;
#X obj 371 459 nozip;
#X obj 460 457 nozip;
#X obj 549 456 nozip;
#X obj 46 467 bng 15 250 50 0 empty empty empty 17 7 0 10 -262144 -1
-1;
#X obj 46 445 r fade_all;
#X obj 21 180 s fade_all;
#X obj 224 65 bng 40 250 50 0 empty empty empty 17 7 0 10 -4034 -1
-1;
#X obj 194 181 s fade_all;
#N canvas 454 354 1455 647 presets 1;
#X obj 161 -46 s player1;
#X obj 224 -46 s player2;
#X obj 351 -46 s player4;
#X obj 288 -46 s player3;
#X obj 413 -227 inlet;
#X obj 413 -46 s player5;
#X obj 475 -46 s player6;
#X obj 538 -46 s player7;
#X obj 602 -46 s player8;
#X obj 665 -46 s player9;
#X obj 727 -46 s player10;
#X obj 795 -46 s player11;
#X obj 864 -46 s player12;
#X obj 932 -46 s player13;
#X obj 1000 -46 s player14;
#X obj 1069 -46 s player15;
#X obj 79 0 r preset_for_tables;
#X obj 413 -174 s preset_for_tables;
#X msg 434 -128 silence;
#X obj 413 -200 t f b;
#X text 489 -130 init each table w/ silence each preset change;
#X obj 79 25 sel 1;
#X msg 105 114 playlist11;
#X msg 81 86 playlist02;
#X msg 40 60 playlist01;
#X obj 40 134 s player1;
#X obj 238 3 r preset_for_tables;
#X obj 238 85 s player15;
#X msg 238 57 soloholo15;
#X obj 238 28 sel 2;
#X obj 379 3 r preset_for_tables;
#X obj 340 137 s player1;
#X obj 379 28 sel 3;
#X obj 81 157 s player2;
#X obj 105 181 s player11;
#X obj 381 160 s player2;
#X obj 405 184 s player4;
#X obj 444 212 s player9;
#X obj 468 236 s player10;
#X msg 340 63 playtrans01;
#X msg 381 89 playtrans02;
#X msg 405 117 playtrans04;
#X msg 444 141 playtrans09;
#X msg 468 169 playtrans10;
#X obj 593 4 r preset_for_tables;
#X obj 554 138 s player1;
#X obj 595 161 s player2;
#X obj 593 29 sel 4;
#X msg 554 64 kobe01;
#X msg 595 90 kobe02;
#X msg 619 118 kobe05;
#X msg 658 142 kobe06;
#X msg 682 170 kobe07;
#X msg 720 197 kobe12;
#X obj 619 185 s player5;
#X obj 658 213 s player6;
#X obj 682 237 s player7;
#X obj 720 264 s player12;
#X obj 804 5 r preset_for_tables;
#X obj 765 139 s player1;
#X obj 806 162 s player2;
#X obj 804 30 sel 5;
#X msg 765 65 game01;
#X msg 806 91 game02;
#X msg 830 119 game03;
#X msg 869 143 game04;
#X msg 895 171 game05;
#X msg 931 198 game06;
#X obj 830 186 s player3;
#X obj 869 214 s player4;
#X obj 893 238 s player5;
#X obj 931 265 s player6;
#X obj 956 288 s player10;
#X obj 1087 9 r preset_for_tables;
#X obj 1087 34 sel 6;
#X msg 1048 69 run06;
#X msg 1089 95 run08;
#X msg 1113 123 run13;
#X msg 1152 147 run10;
#X msg 1176 175 run11;
#X obj 1048 143 s player6;
#X obj 1089 166 s player8;
#X obj 1113 190 s player13;
#X obj 1152 218 s player10;
#X obj 1176 242 s player11;
#X obj 72 253 r preset_for_tables;
#X obj 72 278 sel 7;
#X msg 33 313 pedestal01;
#X msg 74 339 pedestal02;
#X obj 33 387 s player1;
#X obj 74 410 s player2;
#X obj 225 257 r preset_for_tables;
#X obj 225 282 sel 8;
#X msg 225 311 touch14;
#X obj 225 339 s player14;
#X obj 410 262 r preset_for_tables;
#X obj 371 396 s player1;
#X obj 412 419 s player2;
#X obj 410 287 sel 9;
#X msg 371 322 unmatched01;
#X msg 412 348 unmatched02;
#X obj 681 317 r preset_for_tables;
#X msg 956 221 game10;
#X obj 107 469 line;
#X msg 95 438 1 2000;
#X msg 143 439 0 2000;
#X obj 505 309 r preset_for_tables;
#X obj 504 337 sel 10;
#X obj 501 410 line;
#X msg 537 380 0 2000;
#X obj 501 432 s afterparty_fade;
#X obj 527 483 s afterparty_trig;
#X obj 677 422 line;
#X msg 713 392 0 2000;
#X obj 680 349 sel 11;
#X obj 677 444 s wipe_fade;
#X obj 703 495 s wipe_trig;
#X msg 665 391 1 1;
#X obj 703 468 delay 1;
#X msg 489 379 1 1;
#X obj 527 456 delay 1;
#X obj 107 491 s shoe_kill;
#X connect 4 0 19 0;
#X connect 16 0 21 0;
#X connect 18 0 0 0;
#X connect 18 0 1 0;
#X connect 18 0 3 0;
#X connect 18 0 2 0;
#X connect 18 0 5 0;
#X connect 18 0 6 0;
#X connect 18 0 7 0;
#X connect 18 0 8 0;
#X connect 18 0 9 0;
#X connect 18 0 10 0;
#X connect 18 0 11 0;
#X connect 18 0 12 0;
#X connect 18 0 13 0;
#X connect 18 0 14 0;
#X connect 18 0 15 0;
#X connect 19 0 17 0;
#X connect 19 1 18 0;
#X connect 21 0 24 0;
#X connect 21 0 23 0;
#X connect 21 0 22 0;
#X connect 22 0 34 0;
#X connect 23 0 33 0;
#X connect 24 0 25 0;
#X connect 26 0 29 0;
#X connect 28 0 27 0;
#X connect 29 0 28 0;
#X connect 30 0 32 0;
#X connect 32 0 39 0;
#X connect 32 0 40 0;
#X connect 32 0 41 0;
#X connect 32 0 42 0;
#X connect 32 0 43 0;
#X connect 39 0 31 0;
#X connect 40 0 35 0;
#X connect 41 0 36 0;
#X connect 42 0 37 0;
#X connect 43 0 38 0;
#X connect 44 0 47 0;
#X connect 47 0 48 0;
#X connect 47 0 49 0;
#X connect 47 0 50 0;
#X connect 47 0 51 0;
#X connect 47 0 52 0;
#X connect 47 0 53 0;
#X connect 48 0 45 0;
#X connect 49 0 46 0;
#X connect 50 0 54 0;
#X connect 51 0 55 0;
#X connect 52 0 56 0;
#X connect 53 0 57 0;
#X connect 58 0 61 0;
#X connect 61 0 62 0;
#X connect 61 0 63 0;
#X connect 61 0 64 0;
#X connect 61 0 65 0;
#X connect 61 0 66 0;
#X connect 61 0 67 0;
#X connect 61 0 102 0;
#X connect 62 0 59 0;
#X connect 63 0 60 0;
#X connect 64 0 68 0;
#X connect 65 0 69 0;
#X connect 66 0 70 0;
#X connect 67 0 71 0;
#X connect 73 0 74 0;
#X connect 74 0 75 0;
#X connect 74 0 76 0;
#X connect 74 0 77 0;
#X connect 74 0 78 0;
#X connect 74 0 79 0;
#X connect 75 0 80 0;
#X connect 76 0 81 0;
#X connect 77 0 82 0;
#X connect 78 0 83 0;
#X connect 79 0 84 0;
#X connect 85 0 86 0;
#X connect 86 0 87 0;
#X connect 86 0 88 0;
#X connect 86 0 104 0;
#X connect 86 1 105 0;
#X connect 88 0 90 0;
#X connect 91 0 92 0;
#X connect 92 0 93 0;
#X connect 93 0 94 0;
#X connect 95 0 98 0;
#X connect 98 0 99 0;
#X connect 98 0 100 0;
#X connect 99 0 96 0;
#X connect 100 0 97 0;
#X connect 101 0 114 0;
#X connect 102 0 72 0;
#X connect 103 0 121 0;
#X connect 104 0 103 0;
#X connect 105 0 103 0;
#X connect 106 0 107 0;
#X connect 107 0 119 0;
#X connect 107 0 120 0;
#X connect 107 1 109 0;
#X connect 108 0 110 0;
#X connect 109 0 108 0;
#X connect 112 0 115 0;
#X connect 113 0 112 0;
#X connect 114 0 117 0;
#X connect 114 0 118 0;
#X connect 114 1 113 0;
#X connect 117 0 112 0;
#X connect 118 0 116 0;
#X connect 119 0 108 0;
#X connect 120 0 111 0;
#X restore 50 580 pd presets;
#X obj 276 391 t b a;
#X obj 371 389 t b a;
#X obj 371 364 r player2;
#X obj 460 387 t b a;
#X obj 549 385 t b a;
#X obj 50 541 r preset;
#X obj 64 562 bng 15 250 50 0 empty empty empty 17 7 0 10 -262144 -1
-1;
#X obj 460 362 r player3;
#X obj 549 360 r player4;
#X obj 276 366 r player1;
#X floatatom 85 561 5 0 0 0 - - -, f 5;
#X obj 51 152 t b f;
#X msg 51 128 1;
#X msg 224 132 2;
#X obj 635 438 loadbang;
#X obj 16 233 loadbang;
#X obj 48 716 r preset;
#X obj 56 742 bng 15 250 50 0 empty empty empty 17 7 0 10 -262144 -1
-1;
#X floatatom 77 742 5 0 0 0 - - -, f 5;
#N canvas 1018 50 888 509 osc_sender 0;
#X obj 102 48 inlet;
#X obj 103 123 oscparse;
#X obj 247 140 list prepend send;
#X obj 247 168 list trim;
#X msg 265 221 disconnect;
#X obj 247 252 netsend -u -b;
#X obj 103 168 print sending_osc;
#X obj 103 145 list trim;
#X text 415 193 <-- enter holoplot IP here;
#X obj 102 75 oscformat presets load;
#X text 380 236 148;
#X text 372 261 59;
#X msg 264 194 connect 192.168.1.59 7728;
#X connect 0 0 9 0;
#X connect 1 0 7 0;
#X connect 2 0 3 0;
#X connect 3 0 5 0;
#X connect 4 0 5 0;
#X connect 7 0 6 0;
#X connect 9 0 1 0;
#X connect 9 0 2 0;
#X connect 12 0 5 0;
#X restore 48 828 pd osc_sender;
#X msg 48 763 \$1;
#X obj 1362 440 nozip;
#X obj 1362 369 t b a;
#X obj 404 64 bng 40 250 50 0 empty empty empty 17 7 0 10 -4034 -1
-1;
#X obj 374 181 s fade_all;
#X obj 572 65 bng 40 250 50 0 empty empty empty 17 7 0 10 -4034 -1
-1;
#X obj 542 181 s fade_all;
#X obj 404 153 t b f;
#X obj 750 64 bng 40 250 50 0 empty empty empty 17 7 0 10 -4034 -1
-1;
#X obj 720 181 s fade_all;
#X obj 923 65 bng 40 250 50 0 empty empty empty 17 7 0 10 -4034 -1
-1;
#X obj 893 181 s fade_all;
#X obj 1108 64 bng 40 250 50 0 empty empty empty 17 7 0 10 -4034 -1
-1;
#X obj 1078 181 s fade_all;
#X obj 1281 64 bng 40 250 50 0 empty empty empty 17 7 0 10 -4034 -1
-1;
#X obj 1251 180 s fade_all;
#X obj 1108 153 t b f;
#X msg 404 129 3;
#X msg 572 129 4;
#X msg 750 129 5;
#X msg 923 132 6;
#X msg 1108 129 7;
#X msg 1281 131 8;
#X obj 1458 66 bng 40 250 50 0 empty empty empty 17 7 0 10 -4034 -1
-1;
#X obj 1428 180 s fade_all;
#X msg 1458 131 9;
#X text 576 38 athlete story;
#X text 740 37 in the game;
#X text 922 38 run;
#X text 1449 36 unmatched;
#X text 1626 36 after party;
#X obj 224 153 t b f;
#X obj 572 153 t b f;
#X obj 750 153 t b f;
#X obj 923 153 t b f;
#X obj 1281 152 t b f;
#X obj 1458 152 t b f;
#X obj 1498 529 output~ 3;
#X obj 1661 530 output~ 5;
#X obj 1856 456 loadbang;
#X obj 1565 462 linear_panner_7ch~;
#X floatatom 1759 420 5 0 0 0 - - -, f 5;
#X obj 1739 368 tgl 15 0 empty empty empty 17 7 0 10 -262144 -1 -1
0 1;
#N canvas 327 152 450 300 to_and_fro 0;
#X obj 119 126 metro 5000;
#X obj 119 224 line;
#X msg 119 198 \$1 5000;
#X obj 119 250 outlet;
#X obj 119 101 tgl 15 0 empty empty empty 17 7 0 10 -262144 -1 -1 0
1;
#X obj 81 62 inlet;
#X obj 119 151 random 100;
#X obj 119 174 / 100;
#X connect 0 0 6 0;
#X connect 1 0 3 0;
#X connect 2 0 1 0;
#X connect 4 0 0 0;
#X connect 5 0 4 0;
#X connect 6 0 7 0;
#X connect 7 0 2 0;
#X restore 1645 396 pd to_and_fro;
#X floatatom 1664 422 5 0 0 0 - - -, f 5;
#X obj 1645 370 tgl 15 0 empty empty empty 17 7 0 10 -262144 -1 -1
0 1;
#N canvas 1318 807 450 300 back_and_forth 0;
#X obj 119 200 line;
#X obj 119 150 tgl 15 0 empty empty empty 17 7 0 10 -262144 -1 -1 0
1;
#X obj 119 226 outlet;
#X obj 119 101 tgl 15 0 empty empty empty 17 7 0 10 -262144 -1 -1 0
1;
#X obj 81 62 inlet;
#X obj 119 126 metro 5000;
#X msg 118 174 \$1 5000;
#X connect 0 0 2 0;
#X connect 1 0 6 0;
#X connect 3 0 5 0;
#X connect 4 0 3 0;
#X connect 5 0 1 0;
#X connect 6 0 0 0;
#X restore 1740 394 pd back_and_forth;
#X obj 1270 920 shoetest;
#N canvas 940 57 889 579 osc_recv 0;
#X obj 325 159 netreceive -u -b;
#X msg 337 132 listen 0;
#X msg 325 104 listen 5001;
#X obj 325 183 oscparse;
#X obj 325 206 list trim;
#X obj 325 76 loadbang;
#X obj 325 256 outlet;
#X connect 0 0 3 0;
#X connect 1 0 0 0;
#X connect 2 0 0 0;
#X connect 3 0 4 0;
#X connect 4 0 6 0;
#X connect 5 0 2 0;
#X restore 1050 -127 pd osc_recv;
#X msg 636 465 -10;
#X msg 1856 483 -10;
#X msg 70 668 1;
#X obj 48 787 list prepend 1;
#X obj 1314 529 output~ 4;
#X obj 1409 529 output~ 6;
#X obj 1587 529 output~ 7;
#X obj 1750 530 output~ 8;
#X obj 1839 530 output~ 10;
#X obj 709 458 nozip;
#X obj 804 457 nozip;
#X obj 893 455 nozip;
#X obj 982 454 nozip;
#X obj 709 389 t b a;
#X obj 804 387 t b a;
#X obj 893 385 t b a;
#X obj 982 383 t b a;
#X obj 1068 436 loadbang;
#X msg 1069 463 -10;
#X obj 709 525 output~ 5;
#X obj 804 525 output~ 6;
#X obj 893 525 output~ 7;
#X obj 982 525 output~ 8;
#X obj 709 364 r player5;
#X obj 804 362 r player6;
#X obj 893 360 r player7;
#X obj 982 358 r player8;
#X obj 270 851 nozip;
#X obj 365 850 nozip;
#X obj 454 848 nozip;
#X obj 543 847 nozip;
#X obj 270 782 t b a;
#X obj 365 780 t b a;
#X obj 454 778 t b a;
#X obj 543 776 t b a;
#X obj 629 829 loadbang;
#X msg 630 856 -10;
#X obj 703 849 nozip;
#X obj 798 848 nozip;
#X obj 887 846 nozip;
#X obj 703 780 t b a;
#X obj 798 778 t b a;
#X obj 887 776 t b a;
#X obj 999 819 loadbang;
#X msg 1000 846 -10;
#X obj 270 757 r player9;
#X obj 365 755 r player10;
#X obj 454 753 r player11;
#X obj 543 751 r player12;
#X obj 703 755 r player13;
#X obj 798 753 r player14;
#X obj 887 751 r player15;
#X obj 270 918 output~ 9;
#X obj 365 918 output~ 10;
#X obj 454 918 output~ 11;
#X obj 543 918 output~ 12;
#X obj 703 916 output~ 13;
#X obj 798 916 output~ 14;
#X obj 887 916 output~ 15;
#X obj 1362 344 r player16;
#X text 44 848 osc sender not in use!;
#X text 216 42 soloholo;
#X text 401 34 spatial remix;
#X obj 303 436 r fade;
#X obj 398 435 r fade;
#X obj 487 433 r fade;
#X obj 576 432 r fade;
#X obj 736 434 r fade;
#X obj 831 433 r fade;
#X obj 920 431 r fade;
#X obj 1009 430 r fade;
#X obj 1389 416 r fade;
#X obj 914 822 r fade;
#X obj 825 824 r fade;
#X obj 730 825 r fade;
#X obj 570 823 r fade;
#X obj 481 824 r fade;
#X obj 392 826 r fade;
#X obj 297 827 r fade;
#X text 1091 37 interactive shoe;
#X text 1272 36 touch interaction;
#X obj 1633 64 bng 40 250 50 0 empty empty empty 17 7 0 10 -4034 -1
-1;
#X obj 1603 180 s fade_all;
#X obj 1633 152 t b f;
#X msg 1633 131 10;
#X obj 1812 65 bng 40 250 50 0 empty empty empty 17 7 0 10 -4034 -1
-1;
#X obj 1782 181 s fade_all;
#X obj 1812 153 t b f;
#X text 1805 37 wipe;
#X obj 1180 243 bng 40 250 50 0 empty empty empty 17 7 0 10 -4034 -1
-1;
#X text 1173 215 quiet;
#X msg 1812 132 11;
#X obj 100 180 s preset;
#X obj 281 181 s preset;
#X obj 453 181 s preset;
#X obj 629 181 s preset;
#X obj 799 181 s preset;
#X obj 980 181 s preset;
#X obj 1158 181 s preset;
#X obj 1338 180 s preset;
#X obj 1515 180 s preset;
#X obj 1690 180 s preset;
#X obj 1869 181 s preset;
#X obj 1180 289 s fade_out;
#X obj 121 445 r fade_out;
#X obj 46 490 fade_all;
#X obj 1140 384 s preset;
#X msg 1140 358 12;
#N canvas 152 59 1630 756 afterparty 0;
#X obj 87 132 readsf~;
#X msg 123 85 open afterparty01.wav;
#X msg 95 47 1, f 7;
#X obj 88 265 output~ 1;
#X obj 88 202 nozip;
#X obj 149 152 r fade;
#X obj 88 233 nozip;
#X obj 95 19 t b b;
#X obj 96 -4 bng 15 250 50 0 empty empty empty 17 7 0 10 -262144 -1
-1;
#X obj 189 235 loadbang;
#X msg 189 265 -10;
#X obj 95 -25 r afterparty_trig;
#X floatatom 147 241 5 0 0 0 - - -, f 5;
#X floatatom 176 181 5 0 0 0 - - -, f 5;
#X obj 128 209 r afterparty_fade;
#X obj 299 140 readsf~;
#X msg 307 55 1, f 7;
#X obj 300 210 nozip;
#X obj 361 160 r fade;
#X obj 300 241 nozip;
#X obj 307 27 t b b;
#X obj 308 4 bng 15 250 50 0 empty empty empty 17 7 0 10 -262144 -1
-1;
#X obj 401 243 loadbang;
#X msg 401 273 -10;
#X obj 307 -17 r afterparty_trig;
#X floatatom 359 249 5 0 0 0 - - -, f 5;
#X floatatom 388 189 5 0 0 0 - - -, f 5;
#X obj 340 217 r afterparty_fade;
#X msg 335 93 open afterparty02.wav;
#X obj 300 273 output~ 2;
#X obj 517 144 readsf~;
#X msg 525 59 1, f 7;
#X obj 518 214 nozip;
#X obj 579 164 r fade;
#X obj 518 245 nozip;
#X obj 525 31 t b b;
#X obj 526 8 bng 15 250 50 0 empty empty empty 17 7 0 10 -262144 -1
-1;
#X obj 619 247 loadbang;
#X msg 619 277 -10;
#X obj 525 -13 r afterparty_trig;
#X floatatom 577 253 5 0 0 0 - - -, f 5;
#X floatatom 606 193 5 0 0 0 - - -, f 5;
#X obj 558 221 r afterparty_fade;
#X obj 729 152 readsf~;
#X msg 737 67 1, f 7;
#X obj 730 222 nozip;
#X obj 791 172 r fade;
#X obj 730 253 nozip;
#X obj 737 39 t b b;
#X obj 738 16 bng 15 250 50 0 empty empty empty 17 7 0 10 -262144 -1
-1;
#X obj 831 255 loadbang;
#X msg 831 285 -10;
#X obj 737 -5 r afterparty_trig;
#X floatatom 789 261 5 0 0 0 - - -, f 5;
#X floatatom 818 201 5 0 0 0 - - -, f 5;
#X obj 770 229 r afterparty_fade;
#X msg 553 97 open afterparty04.wav;
#X msg 765 105 open afterparty05.wav;
#X obj 518 277 output~ 4;
#X obj 730 285 output~ 5;
#X obj 940 152 readsf~;
#X msg 948 67 1, f 7;
#X obj 941 222 nozip;
#X obj 1002 172 r fade;
#X obj 941 253 nozip;
#X obj 948 39 t b b;
#X obj 949 16 bng 15 250 50 0 empty empty empty 17 7 0 10 -262144 -1
-1;
#X obj 1042 255 loadbang;
#X msg 1042 285 -10;
#X obj 948 -5 r afterparty_trig;
#X floatatom 1000 261 5 0 0 0 - - -, f 5;
#X floatatom 1029 201 5 0 0 0 - - -, f 5;
#X obj 981 229 r afterparty_fade;
#X obj 1152 160 readsf~;
#X msg 1160 75 1, f 7;
#X obj 1153 230 nozip;
#X obj 1214 180 r fade;
#X obj 1153 261 nozip;
#X obj 1160 47 t b b;
#X obj 1161 24 bng 15 250 50 0 empty empty empty 17 7 0 10 -262144
-1 -1;
#X obj 1254 263 loadbang;
#X msg 1254 293 -10;
#X obj 1160 3 r afterparty_trig;
#X floatatom 1212 269 5 0 0 0 - - -, f 5;
#X floatatom 1241 209 5 0 0 0 - - -, f 5;
#X obj 1193 237 r afterparty_fade;
#X msg 976 105 open afterparty08.wav;
#X msg 1188 113 open afterparty10.wav;
#X obj 941 285 output~ 8;
#X obj 1153 293 output~ 10;
#X connect 0 0 4 0;
#X connect 1 0 0 0;
#X connect 2 0 0 0;
#X connect 4 0 6 0;
#X connect 5 0 4 1;
#X connect 5 0 13 0;
#X connect 6 0 3 0;
#X connect 7 0 2 0;
#X connect 7 1 1 0;
#X connect 8 0 7 0;
#X connect 9 0 10 0;
#X connect 10 0 3 2;
#X connect 11 0 8 0;
#X connect 14 0 6 1;
#X connect 14 0 12 0;
#X connect 15 0 17 0;
#X connect 16 0 15 0;
#X connect 17 0 19 0;
#X connect 18 0 17 1;
#X connect 18 0 26 0;
#X connect 19 0 29 0;
#X connect 20 0 16 0;
#X connect 20 1 28 0;
#X connect 21 0 20 0;
#X connect 22 0 23 0;
#X connect 23 0 29 2;
#X connect 24 0 21 0;
#X connect 27 0 19 1;
#X connect 27 0 25 0;
#X connect 28 0 15 0;
#X connect 30 0 32 0;
#X connect 31 0 30 0;
#X connect 32 0 34 0;
#X connect 33 0 32 1;
#X connect 33 0 41 0;
#X connect 34 0 58 0;
#X connect 35 0 31 0;
#X connect 35 1 56 0;
#X connect 36 0 35 0;
#X connect 37 0 38 0;
#X connect 38 0 58 2;
#X connect 39 0 36 0;
#X connect 42 0 34 1;
#X connect 42 0 40 0;
#X connect 43 0 45 0;
#X connect 44 0 43 0;
#X connect 45 0 47 0;
#X connect 46 0 45 1;
#X connect 46 0 54 0;
#X connect 47 0 59 0;
#X connect 48 0 44 0;
#X connect 48 1 57 0;
#X connect 49 0 48 0;
#X connect 50 0 51 0;
#X connect 51 0 59 2;
#X connect 52 0 49 0;
#X connect 55 0 47 1;
#X connect 55 0 53 0;
#X connect 56 0 30 0;
#X connect 57 0 43 0;
#X connect 60 0 62 0;
#X connect 61 0 60 0;
#X connect 62 0 64 0;
#X connect 63 0 62 1;
#X connect 63 0 71 0;
#X connect 64 0 88 0;
#X connect 65 0 61 0;
#X connect 65 1 86 0;
#X connect 66 0 65 0;
#X connect 67 0 68 0;
#X connect 68 0 88 2;
#X connect 69 0 66 0;
#X connect 72 0 64 1;
#X connect 72 0 70 0;
#X connect 73 0 75 0;
#X connect 74 0 73 0;
#X connect 75 0 77 0;
#X connect 76 0 75 1;
#X connect 76 0 84 0;
#X connect 77 0 89 0;
#X connect 78 0 74 0;
#X connect 78 1 87 0;
#X connect 79 0 78 0;
#X connect 80 0 81 0;
#X connect 81 0 89 2;
#X connect 82 0 79 0;
#X connect 85 0 77 1;
#X connect 85 0 83 0;
#X connect 86 0 60 0;
#X connect 87 0 73 0;
#X restore 407 280 pd afterparty;
#X obj 1140 332 delay 2000;
#N canvas 7 239 1630 756 wipe 0;
#X obj 92 240 output~ 1;
#X obj 92 208 nozip;
#X obj 193 210 loadbang;
#X msg 193 240 -10;
#X floatatom 151 216 5 0 0 0 - - -, f 5;
#X obj 92 164 nozip;
#X obj 119 140 r fade;
#X msg 92 60 oneshot;
#X obj 92 35 t b b;
#X msg 131 90 wipe01;
#X obj 132 184 r wipe_fade;
#X obj 93 11 r wipe_trig;
#X obj 272 208 nozip;
#X obj 373 210 loadbang;
#X msg 373 240 -10;
#X floatatom 331 216 5 0 0 0 - - -, f 5;
#X obj 272 164 nozip;
#X obj 299 140 r fade;
#X msg 272 60 oneshot;
#X obj 272 35 t b b;
#X obj 312 184 r wipe_fade;
#X obj 273 11 r wipe_trig;
#X obj 452 212 nozip;
#X obj 553 214 loadbang;
#X msg 553 244 -10;
#X floatatom 511 220 5 0 0 0 - - -, f 5;
#X obj 452 168 nozip;
#X obj 479 144 r fade;
#X msg 452 64 oneshot;
#X obj 452 39 t b b;
#X obj 492 188 r wipe_fade;
#X obj 453 15 r wipe_trig;
#X obj 632 212 nozip;
#X obj 733 214 loadbang;
#X msg 733 244 -10;
#X floatatom 691 220 5 0 0 0 - - -, f 5;
#X obj 632 168 nozip;
#X obj 659 144 r fade;
#X msg 632 64 oneshot;
#X obj 632 39 t b b;
#X obj 672 188 r wipe_fade;
#X obj 633 15 r wipe_trig;
#X msg 311 90 wipe02;
#X msg 491 94 wipe03;
#X msg 671 94 wipe04;
#X obj 812 209 nozip;
#X obj 913 211 loadbang;
#X msg 913 241 -10;
#X floatatom 871 217 5 0 0 0 - - -, f 5;
#X obj 812 165 nozip;
#X obj 839 141 r fade;
#X msg 812 61 oneshot;
#X obj 812 36 t b b;
#X obj 852 185 r wipe_fade;
#X obj 813 12 r wipe_trig;
#X obj 992 213 nozip;
#X obj 1093 215 loadbang;
#X msg 1093 245 -10;
#X floatatom 1051 221 5 0 0 0 - - -, f 5;
#X obj 992 169 nozip;
#X obj 1019 145 r fade;
#X msg 992 65 oneshot;
#X obj 992 40 t b b;
#X obj 1032 189 r wipe_fade;
#X obj 993 16 r wipe_trig;
#X obj 1172 213 nozip;
#X obj 1273 215 loadbang;
#X msg 1273 245 -10;
#X floatatom 1231 221 5 0 0 0 - - -, f 5;
#X obj 1172 169 nozip;
#X obj 1199 145 r fade;
#X msg 1172 65 oneshot;
#X obj 1172 40 t b b;
#X obj 1212 189 r wipe_fade;
#X obj 1173 16 r wipe_trig;
#X msg 851 91 wipe07;
#X msg 1031 95 wipe09;
#X obj 272 240 output~ 2;
#X obj 452 244 output~ 3;
#X obj 632 244 output~ 4;
#X obj 812 241 output~ 7;
#X obj 992 245 output~ 9;
#X obj 1172 245 output~ 10;
#X msg 1211 95 wipe10;
#X obj 92 118 elooper~;
#X obj 272 118 elooper~;
#X obj 452 122 elooper~;
#X obj 632 122 elooper~;
#X obj 812 119 elooper~;
#X obj 992 123 elooper~;
#X obj 1172 123 elooper~;
#X connect 1 0 0 0;
#X connect 2 0 3 0;
#X connect 3 0 0 2;
#X connect 5 0 1 0;
#X connect 6 0 5 1;
#X connect 7 0 84 0;
#X connect 8 0 7 0;
#X connect 8 1 9 0;
#X connect 9 0 84 2;
#X connect 10 0 1 1;
#X connect 10 0 4 0;
#X connect 11 0 8 0;
#X connect 12 0 77 0;
#X connect 13 0 14 0;
#X connect 14 0 77 2;
#X connect 16 0 12 0;
#X connect 17 0 16 1;
#X connect 18 0 85 0;
#X connect 19 0 18 0;
#X connect 19 1 42 0;
#X connect 20 0 12 1;
#X connect 20 0 15 0;
#X connect 21 0 19 0;
#X connect 22 0 78 0;
#X connect 23 0 24 0;
#X connect 24 0 78 2;
#X connect 26 0 22 0;
#X connect 27 0 26 1;
#X connect 28 0 86 0;
#X connect 29 0 28 0;
#X connect 29 1 43 0;
#X connect 30 0 22 1;
#X connect 30 0 25 0;
#X connect 31 0 29 0;
#X connect 32 0 79 0;
#X connect 33 0 34 0;
#X connect 34 0 79 2;
#X connect 36 0 32 0;
#X connect 37 0 36 1;
#X connect 38 0 87 0;
#X connect 39 0 38 0;
#X connect 39 1 44 0;
#X connect 40 0 32 1;
#X connect 40 0 35 0;
#X connect 41 0 39 0;
#X connect 42 0 85 2;
#X connect 43 0 86 2;
#X connect 44 0 87 2;
#X connect 45 0 80 0;
#X connect 46 0 47 0;
#X connect 47 0 80 2;
#X connect 49 0 45 0;
#X connect 50 0 49 1;
#X connect 51 0 88 0;
#X connect 52 0 51 0;
#X connect 52 1 75 0;
#X connect 53 0 45 1;
#X connect 53 0 48 0;
#X connect 54 0 52 0;
#X connect 55 0 81 0;
#X connect 56 0 57 0;
#X connect 57 0 81 2;
#X connect 59 0 55 0;
#X connect 60 0 59 1;
#X connect 61 0 89 0;
#X connect 62 0 61 0;
#X connect 62 1 76 0;
#X connect 63 0 55 1;
#X connect 63 0 58 0;
#X connect 64 0 62 0;
#X connect 65 0 82 0;
#X connect 66 0 67 0;
#X connect 67 0 82 2;
#X connect 69 0 65 0;
#X connect 70 0 69 1;
#X connect 71 0 90 0;
#X connect 72 0 71 0;
#X connect 72 1 83 0;
#X connect 73 0 65 1;
#X connect 73 0 68 0;
#X connect 74 0 72 0;
#X connect 75 0 88 2;
#X connect 76 0 89 2;
#X connect 83 0 90 2;
#X connect 84 0 5 0;
#X connect 85 0 16 0;
#X connect 86 0 26 0;
#X connect 87 0 36 0;
#X connect 88 0 49 0;
#X connect 89 0 59 0;
#X connect 90 0 69 0;
#X restore 500 281 pd wipe;
#X obj 1029 -85 route a b c d e f g h i j k;
#X obj 371 413 elooper~;
#X obj 460 411 elooper~;
#X obj 549 410 elooper~;
#X obj 1362 394 elooper~;
#X obj 709 412 elooper~;
#X obj 804 411 elooper~;
#X obj 893 409 elooper~;
#X obj 982 408 elooper~;
#X obj 270 805 elooper~;
#X obj 365 804 elooper~;
#X obj 454 802 elooper~;
#X obj 543 801 elooper~;
#X obj 703 803 elooper~;
#X obj 798 802 elooper~;
#X obj 887 800 elooper~;
#X connect 1 0 3 0;
#X connect 2 0 1 0;
#X connect 6 0 34 0;
#X connect 7 0 12 0;
#X connect 12 0 8 0;
#X connect 13 0 9 0;
#X connect 14 0 10 0;
#X connect 15 0 11 0;
#X connect 16 0 196 0;
#X connect 17 0 16 0;
#X connect 19 0 35 0;
#X connect 22 0 7 0;
#X connect 22 1 7 2;
#X connect 23 0 203 0;
#X connect 23 1 203 2;
#X connect 24 0 23 0;
#X connect 25 0 204 0;
#X connect 25 1 204 2;
#X connect 26 0 205 0;
#X connect 26 1 205 2;
#X connect 27 0 21 0;
#X connect 27 0 28 0;
#X connect 27 0 32 0;
#X connect 29 0 25 0;
#X connect 30 0 26 0;
#X connect 31 0 22 0;
#X connect 33 0 18 0;
#X connect 33 1 183 0;
#X connect 34 0 33 0;
#X connect 35 0 73 0;
#X connect 36 0 91 0;
#X connect 37 0 2 0;
#X connect 38 0 39 0;
#X connect 38 0 40 0;
#X connect 38 0 42 0;
#X connect 42 0 94 0;
#X connect 43 0 82 0;
#X connect 44 0 206 0;
#X connect 44 1 206 2;
#X connect 45 0 59 0;
#X connect 47 0 60 0;
#X connect 49 0 46 0;
#X connect 49 1 185 0;
#X connect 50 0 61 0;
#X connect 52 0 62 0;
#X connect 54 0 63 0;
#X connect 56 0 64 0;
#X connect 58 0 55 0;
#X connect 58 1 189 0;
#X connect 59 0 49 0;
#X connect 60 0 74 0;
#X connect 61 0 75 0;
#X connect 62 0 76 0;
#X connect 63 0 58 0;
#X connect 64 0 77 0;
#X connect 65 0 67 0;
#X connect 67 0 78 0;
#X connect 73 0 20 0;
#X connect 73 1 184 0;
#X connect 74 0 48 0;
#X connect 74 1 186 0;
#X connect 75 0 51 0;
#X connect 75 1 187 0;
#X connect 76 0 53 0;
#X connect 76 1 188 0;
#X connect 77 0 57 0;
#X connect 77 1 190 0;
#X connect 78 0 66 0;
#X connect 78 1 191 0;
#X connect 81 0 92 0;
#X connect 82 1 96 0;
#X connect 82 2 79 0;
#X connect 82 3 97 0;
#X connect 82 4 80 0;
#X connect 82 5 98 0;
#X connect 82 6 99 0;
#X connect 84 0 88 0;
#X connect 85 0 86 0;
#X connect 85 0 82 2;
#X connect 87 0 85 0;
#X connect 88 0 82 2;
#X connect 88 0 83 0;
#X connect 90 0 202 0;
#X connect 91 0 11 2;
#X connect 91 0 10 2;
#X connect 91 0 9 2;
#X connect 91 0 8 2;
#X connect 92 0 80 2;
#X connect 92 0 79 2;
#X connect 92 0 95 2;
#X connect 92 0 96 2;
#X connect 92 0 97 2;
#X connect 92 0 98 2;
#X connect 92 0 99 2;
#X connect 93 0 42 0;
#X connect 100 0 110 0;
#X connect 101 0 111 0;
#X connect 102 0 112 0;
#X connect 103 0 113 0;
#X connect 104 0 207 0;
#X connect 104 1 207 2;
#X connect 105 0 208 0;
#X connect 105 1 208 2;
#X connect 106 0 209 0;
#X connect 106 1 209 2;
#X connect 107 0 210 0;
#X connect 107 1 210 2;
#X connect 108 0 109 0;
#X connect 109 0 110 2;
#X connect 109 0 111 2;
#X connect 109 0 112 2;
#X connect 109 0 113 2;
#X connect 114 0 104 0;
#X connect 115 0 105 0;
#X connect 116 0 106 0;
#X connect 117 0 107 0;
#X connect 118 0 143 0;
#X connect 119 0 144 0;
#X connect 120 0 145 0;
#X connect 121 0 146 0;
#X connect 122 0 211 0;
#X connect 122 1 211 2;
#X connect 123 0 212 0;
#X connect 123 1 212 2;
#X connect 124 0 213 0;
#X connect 124 1 213 2;
#X connect 125 0 214 0;
#X connect 125 1 214 2;
#X connect 126 0 127 0;
#X connect 127 0 143 2;
#X connect 127 0 144 2;
#X connect 127 0 145 2;
#X connect 127 0 146 2;
#X connect 128 0 147 0;
#X connect 129 0 148 0;
#X connect 130 0 149 0;
#X connect 131 0 215 0;
#X connect 131 1 215 2;
#X connect 132 0 216 0;
#X connect 132 1 216 2;
#X connect 133 0 217 0;
#X connect 133 1 217 2;
#X connect 134 0 135 0;
#X connect 135 0 147 2;
#X connect 135 0 148 2;
#X connect 135 0 149 2;
#X connect 136 0 122 0;
#X connect 137 0 123 0;
#X connect 138 0 124 0;
#X connect 139 0 125 0;
#X connect 140 0 131 0;
#X connect 141 0 132 0;
#X connect 142 0 133 0;
#X connect 150 0 44 0;
#X connect 154 0 12 1;
#X connect 155 0 13 1;
#X connect 156 0 14 1;
#X connect 157 0 15 1;
#X connect 158 0 100 1;
#X connect 159 0 101 1;
#X connect 160 0 102 1;
#X connect 161 0 103 1;
#X connect 162 0 43 1;
#X connect 163 0 130 1;
#X connect 164 0 129 1;
#X connect 165 0 128 1;
#X connect 166 0 121 1;
#X connect 167 0 120 1;
#X connect 168 0 119 1;
#X connect 169 0 118 1;
#X connect 172 0 175 0;
#X connect 174 0 173 0;
#X connect 174 1 192 0;
#X connect 175 0 174 0;
#X connect 176 0 182 0;
#X connect 178 0 177 0;
#X connect 178 1 193 0;
#X connect 180 0 194 0;
#X connect 180 0 200 0;
#X connect 182 0 178 0;
#X connect 195 0 196 1;
#X connect 198 0 197 0;
#X connect 200 0 198 0;
#X connect 202 0 6 0;
#X connect 202 1 52 0;
#X connect 202 2 47 0;
#X connect 202 3 50 0;
#X connect 202 4 54 0;
#X connect 202 5 56 0;
#X connect 202 6 176 0;
#X connect 202 7 172 0;
#X connect 202 8 19 0;
#X connect 202 9 65 0;
#X connect 202 10 180 0;
#X connect 203 0 13 0;
#X connect 204 0 14 0;
#X connect 205 0 15 0;
#X connect 206 0 43 0;
#X connect 207 0 100 0;
#X connect 208 0 101 0;
#X connect 209 0 102 0;
#X connect 210 0 103 0;
#X connect 211 0 118 0;
#X connect 212 0 119 0;
#X connect 213 0 120 0;
#X connect 214 0 121 0;
#X connect 215 0 128 0;
#X connect 216 0 129 0;
#X connect 217 0 130 0;
